<?xml version="1.0" encoding="UTF-8" standalone="no"?>
<svg
   xmlns:dc="http://purl.org/dc/elements/1.1/"
   xmlns:cc="http://creativecommons.org/ns#"
   xmlns:rdf="http://www.w3.org/1999/02/22-rdf-syntax-ns#"
   xmlns:svg="http://www.w3.org/2000/svg"
   xmlns="http://www.w3.org/2000/svg"
   xmlns:sodipodi="http://sodipodi.sourceforge.net/DTD/sodipodi-0.dtd"
   xmlns:inkscape="http://www.inkscape.org/namespaces/inkscape"
   width="76px"
   height="76px"
   viewBox="0 0 76 76"
   version="1.1"
   enable-background="new 0 0 76.00 76.00"
   xml:space="preserve"
   id="svg4"
   sodipodi:docname="axis-x.svg"
   inkscape:version="1.0.2 (e86c870879, 2021-01-15)"><metadata
   id="metadata10"><rdf:RDF><cc:Work
       rdf:about=""><dc:format>image/svg+xml</dc:format><dc:type
         rdf:resource="http://purl.org/dc/dcmitype/StillImage" /></cc:Work></rdf:RDF></metadata><defs
   id="defs8" /><sodipodi:namedview
   pagecolor="#ffffff"
   bordercolor="#666666"
   borderopacity="1"
   objecttolerance="10"
   gridtolerance="10"
   guidetolerance="10"
   inkscape:pageopacity="0"
   inkscape:pageshadow="2"
   inkscape:window-width="1920"
   inkscape:window-height="1043"
   id="namedview6"
   showgrid="false"
   inkscape:zoom="11.263158"
   inkscape:cx="38"
   inkscape:cy="34.448598"
   inkscape:window-x="1920"
   inkscape:window-y="0"
   inkscape:window-maximized="1"
   inkscape:current-layer="svg4" />
	<path
   fill="#000000"
   fill-opacity="1"
   stroke-width="0.2"
   stroke-linejoin="round"
   d="M 38,38 H 54.625 L 49,32 h 5.5 l 7.5,8 -7.5,8 H 49 l 5.625,-6 H 36.8284 l -8.1728,8.1728 C 28.8779,50.7388 29,51.3551 29,52 c 0,2.7614 -2.2386,5 -5,5 -2.7614,0 -5,-2.2386 -5,-5 0,-2.7614 2.2386,-5 5,-5 0.6449,0 1.2612,0.1221 1.8272,0.3444 L 34,39.1716 V 24.584 C 32.2341,23.8124 31,22.0503 31,20 c 0,-2.7614 2.2386,-5 5,-5 2.7614,0 5,2.2386 5,5 0,2.0503 -1.2341,3.8124 -3,4.584 z"
   id="path2"
   style="fill:#b4e2ff" />
</svg>
