<?xml version="1.0" encoding="UTF-8" standalone="no"?>
<!-- Created with Inkscape (http://www.inkscape.org/) -->

<svg
   xmlns:dc="http://purl.org/dc/elements/1.1/"
   xmlns:cc="http://creativecommons.org/ns#"
   xmlns:rdf="http://www.w3.org/1999/02/22-rdf-syntax-ns#"
   xmlns:svg="http://www.w3.org/2000/svg"
   xmlns="http://www.w3.org/2000/svg"
   xmlns:sodipodi="http://sodipodi.sourceforge.net/DTD/sodipodi-0.dtd"
   xmlns:inkscape="http://www.inkscape.org/namespaces/inkscape"
   id="svg2"
   version="1.1"
   inkscape:version="0.91 r13725"
   xml:space="preserve"
   width="818.26752"
   height="178.10374"
   viewBox="0 0 818.26752 178.10374"
   sodipodi:docname="LOGO CREATIS EXE QUADRI.svg"><metadata
     id="metadata8"><rdf:RDF><cc:Work
         rdf:about=""><dc:format>image/svg+xml</dc:format><dc:type
           rdf:resource="http://purl.org/dc/dcmitype/StillImage" /><dc:title></dc:title></cc:Work></rdf:RDF></metadata><defs
     id="defs6"><clipPath
       clipPathUnits="userSpaceOnUse"
       id="clipPath28"><path
         d="m 0,142.483 654.614,0 L 654.614,0 0,0 0,142.483 Z"
         id="path30"
         inkscape:connector-curvature="0" /></clipPath></defs><sodipodi:namedview
     pagecolor="#ffffff"
     bordercolor="#666666"
     borderopacity="1"
     objecttolerance="10"
     gridtolerance="10"
     guidetolerance="10"
     inkscape:pageopacity="0"
     inkscape:pageshadow="2"
     inkscape:window-width="640"
     inkscape:window-height="480"
     id="namedview4"
     showgrid="false"
     inkscape:zoom="0.52305632"
     inkscape:cx="409.13376"
     inkscape:cy="89.051872"
     inkscape:window-x="0"
     inkscape:window-y="0"
     inkscape:window-maximized="0"
     inkscape:current-layer="g10" /><g
     id="g10"
     inkscape:groupmode="layer"
     inkscape:label="LOGO CREATIS EXE QUADRI"
     transform="matrix(1.25,0,0,-1.25,0,178.10375)"><g
       id="g12"
       transform="translate(369.2324,58.7853)"><path
         d="m 0,0 23.009,0 -21.667,52.988 -22.969,0 -0.02,-0.05 L 0,0 Z"
         style="fill:#2e9bdd;fill-opacity:1;fill-rule:nonzero;stroke:none"
         id="path14"
         inkscape:connector-curvature="0" /></g><g
       id="g16"
       transform="translate(355.7997,75.5451)"><path
         d="m 0,0 -11.504,28.135 -29.605,-72.399 23.012,0 L 0,0 Z"
         style="fill:#4f4c4d;fill-opacity:1;fill-rule:nonzero;stroke:none"
         id="path18"
         inkscape:connector-curvature="0" /></g><g
       id="g20"
       transform="translate(353.4355,52.5792)"><path
         d="m 0,0 -8.706,-21.298 58.759,0 L 41.344,0 0,0 Z"
         style="fill:#bdbcbc;fill-opacity:1;fill-rule:nonzero;stroke:none"
         id="path22"
         inkscape:connector-curvature="0" /></g><g
       id="g24"><g
         id="g26"
         clip-path="url(#clipPath28)"><g
           id="g32"
           transform="translate(72.6977,49.8732)"><path
             d="m 0,0 c -11.199,0 -19.083,9.37 -19.083,21.369 l 0,0.228 c 0,11.656 7.884,21.141 19.083,21.141 7.657,0 12.914,-3.657 17.483,-9.371 L 34.168,46.28 c -7.085,9.827 -17.597,16.684 -33.939,16.684 -24.225,0 -42.166,-18.284 -42.166,-41.595 l 0,-0.229 c 0,-23.883 18.397,-41.367 41.252,-41.367 17.712,0 27.882,7.657 35.424,18.056 L 18.055,9.712 C 13.256,3.885 8.342,0 0,0"
             style="fill:#231f20;fill-opacity:1;fill-rule:nonzero;stroke:none"
             id="path34"
             inkscape:connector-curvature="0" /></g><g
           id="g36"
           transform="translate(408.081,91.8107)"><path
             d="m 0,0 23.996,0 0,-60.564 22.17,0 0,60.564 23.996,0 0,19.426 L 0,19.426 0,0 Z"
             style="fill:#231f20;fill-opacity:1;fill-rule:nonzero;stroke:none"
             id="path38"
             inkscape:connector-curvature="0" /></g><path
           d="m 507.514,31.246 22.283,0 0,79.991 -22.283,0 0,-79.991 z"
           style="fill:#231f20;fill-opacity:1;fill-rule:nonzero;stroke:none"
           id="path40"
           inkscape:connector-curvature="0" /><g
           id="g42"
           transform="translate(595.122,81.0695)"><path
             d="m 0,0 c -11.084,2.514 -13.827,4.113 -13.827,7.77 l 0,0.229 c 0,2.857 2.629,5.142 7.999,5.142 7.086,0 15.084,-2.743 22.397,-7.885 l 11.085,15.656 c -8.684,6.97 -19.311,10.627 -32.91,10.627 -19.198,0 -30.968,-10.742 -30.968,-25.597 l 0,-0.229 c 0,-16.455 13.141,-21.255 30.168,-25.14 C 4.8,-21.94 7.428,-23.769 7.428,-27.083 l 0,-0.229 c 0,-3.428 -3.199,-5.484 -9.142,-5.484 -9.256,0 -18.056,3.313 -25.94,9.599 l -12.341,-14.741 c 9.827,-8.8 23.31,-13.256 37.481,-13.256 19.426,0 32.339,9.713 32.339,26.053 l 0,0.229 C 29.825,-9.942 18.398,-4 0,0"
             style="fill:#231f20;fill-opacity:1;fill-rule:nonzero;stroke:none"
             id="path44"
             inkscape:connector-curvature="0" /></g><g
           id="g46"
           transform="translate(179.3422,82.3263)"><path
             d="m 0,0 c 0,-5.829 -4.343,-9.485 -11.885,-9.485 l -14.627,0 0,19.198 14.512,0 c 7.428,0 12,-3.2 12,-9.485 L 0,0 Z m 22.283,1.371 0,0.228 c 0,7.885 -2.4,14.056 -7.085,18.627 -5.371,5.485 -13.827,8.685 -26.055,8.685 l -37.823,0 0,-79.991 22.168,0 0,24.226 0.01,0 0,14.589 25.815,-38.815 25.598,0 -19.084,27.883 c 9.943,4.228 16.456,12.341 16.456,24.568"
             style="fill:#231f20;fill-opacity:1;fill-rule:nonzero;stroke:none"
             id="path48"
             inkscape:connector-curvature="0" /></g><path
           d="m 223.399,92.382 74.584,0 0,18.855 -74.584,0 0,-18.855 z"
           style="fill:#231f20;fill-opacity:1;fill-rule:nonzero;stroke:none"
           id="path50"
           inkscape:connector-curvature="0" /><path
           d="m 223.399,62.786 74.584,0 0,17.483 -74.584,0 0,-17.483 z"
           style="fill:#231f20;fill-opacity:1;fill-rule:nonzero;stroke:none"
           id="path52"
           inkscape:connector-curvature="0" /><path
           d="m 223.399,31.246 74.584,0 0,18.855 -74.584,0 0,-18.855 z"
           style="fill:#231f20;fill-opacity:1;fill-rule:nonzero;stroke:none"
           id="path54"
           inkscape:connector-curvature="0" /></g></g></g></svg>