<?xml version="1.0" encoding="UTF-8" standalone="no"?>
<svg
   xmlns:dc="http://purl.org/dc/elements/1.1/"
   xmlns:cc="http://creativecommons.org/ns#"
   xmlns:rdf="http://www.w3.org/1999/02/22-rdf-syntax-ns#"
   xmlns:svg="http://www.w3.org/2000/svg"
   xmlns="http://www.w3.org/2000/svg"
   xmlns:sodipodi="http://sodipodi.sourceforge.net/DTD/sodipodi-0.dtd"
   xmlns:inkscape="http://www.inkscape.org/namespaces/inkscape"
   id="svg2"
   version="1.1"
   inkscape:version="1.0.2 (e86c870879, 2021-01-15)"
   xml:space="preserve"
   width="1329.4056"
   height="186.12779"
   viewBox="0 0 1329.4056 186.1278"
   sodipodi:docname="creatis_quadri_logo_invert_new.svg"><metadata
     id="metadata8"><rdf:RDF><cc:Work
         rdf:about=""><dc:format>image/svg+xml</dc:format><dc:type
           rdf:resource="http://purl.org/dc/dcmitype/StillImage" /><dc:title /></cc:Work></rdf:RDF></metadata><defs
     id="defs6"><clipPath
       clipPathUnits="userSpaceOnUse"
       id="clipPath28"><path
         d="M 0,142.483 H 654.614 V 0 H 0 Z"
         id="path30"
         inkscape:connector-curvature="0" /></clipPath></defs><sodipodi:namedview
     pagecolor="#ffffff"
     bordercolor="#666666"
     borderopacity="1"
     objecttolerance="10"
     gridtolerance="10"
     guidetolerance="10"
     inkscape:pageopacity="0"
     inkscape:pageshadow="2"
     inkscape:window-width="1920"
     inkscape:window-height="1043"
     id="namedview4"
     showgrid="false"
     inkscape:zoom="0.36985668"
     inkscape:cx="1257.2683"
     inkscape:cy="-311.25718"
     inkscape:window-x="1920"
     inkscape:window-y="0"
     inkscape:window-maximized="1"
     inkscape:current-layer="layer1"
     inkscape:document-rotation="0" /><g
     inkscape:groupmode="layer"
     id="layer1"
     inkscape:label="LOGO CREATIS EXE QUADRI 1"
     style="display:inline"
     transform="translate(548.2219,45.081792)"><g
       id="g12"
       transform="matrix(2.2373549,0,0,-2.2373549,211.05585,75.930036)"><path
         d="M 0,0 H 23.009 L 1.342,52.988 h -22.969 l -0.02,-0.05 z"
         style="fill:#2e9bdd;fill-opacity:1;fill-rule:nonzero;stroke:none"
         id="path14"
         inkscape:connector-curvature="0" /></g><g
       id="g16"
       transform="matrix(2.2373549,0,0,-2.2373549,181.00211,38.432403)"><path
         d="m 0,0 -11.504,28.135 -29.605,-72.399 h 23.012 z"
         style="fill:#4f4c4d;fill-opacity:1;fill-rule:nonzero;stroke:none"
         id="path18"
         inkscape:connector-curvature="0" /></g><g
       id="g20"
       transform="matrix(1.522587,0,0,-1.522587,369.14247,106.18196)"><path
         d="m -127.0403,10.749258 -12.79297,-31.296198 h 86.343005 l -12.79738,31.296198 z"
         style="fill:#bdbcbc;fill-opacity:1;fill-rule:nonzero;stroke:none;stroke-width:1.46944"
         id="path22"
         inkscape:connector-curvature="0" /></g></g><g
     id="g10"
     inkscape:groupmode="layer"
     inkscape:label="LOGO CREATIS EXE QUADRI"
     transform="matrix(1.25,0,0,-1.25,548.2219,223.18554)"
     style="display:inline"><g
       id="g24"
       style="fill:#ffffff"
       transform="matrix(1.7898839,0,0,1.7898839,-493.6356,-23.417057)"><g
         id="g26"
         clip-path="url(#clipPath28)"
         style="fill:#ffffff"><g
           id="g32"
           transform="translate(72.6977,49.8732)"
           style="fill:#ffffff"><path
             d="m 0,0 c -11.199,0 -19.083,9.37 -19.083,21.369 v 0.228 c 0,11.656 7.884,21.141 19.083,21.141 7.657,0 12.914,-3.657 17.483,-9.371 L 34.168,46.28 C 27.083,56.107 16.571,62.964 0.229,62.964 -23.996,62.964 -41.937,44.68 -41.937,21.369 V 21.14 c 0,-23.883 18.397,-41.367 41.252,-41.367 17.712,0 27.882,7.657 35.424,18.056 L 18.055,9.712 C 13.256,3.885 8.342,0 0,0"
             style="fill:#ffffff;fill-opacity:1;fill-rule:nonzero;stroke:none"
             id="path34"
             inkscape:connector-curvature="0" /></g><g
           id="g36"
           transform="translate(408.081,91.8107)"
           style="fill:#ffffff"><path
             d="m 0,0 h 23.996 v -60.564 h 22.17 V 0 H 70.162 V 19.426 H 0 Z"
             style="fill:#ffffff;fill-opacity:1;fill-rule:nonzero;stroke:none"
             id="path38"
             inkscape:connector-curvature="0" /></g><path
           d="m 507.514,31.246 h 22.283 v 79.991 h -22.283 z"
           style="fill:#ffffff;fill-opacity:1;fill-rule:nonzero;stroke:none"
           id="path40"
           inkscape:connector-curvature="0" /><g
           id="g42"
           transform="translate(595.122,81.0695)"
           style="fill:#ffffff"><path
             d="m 0,0 c -11.084,2.514 -13.827,4.113 -13.827,7.77 v 0.229 c 0,2.857 2.629,5.142 7.999,5.142 7.086,0 15.084,-2.743 22.397,-7.885 l 11.085,15.656 c -8.684,6.97 -19.311,10.627 -32.91,10.627 -19.198,0 -30.968,-10.742 -30.968,-25.597 V 5.713 c 0,-16.455 13.141,-21.255 30.168,-25.14 C 4.8,-21.94 7.428,-23.769 7.428,-27.083 v -0.229 c 0,-3.428 -3.199,-5.484 -9.142,-5.484 -9.256,0 -18.056,3.313 -25.94,9.599 l -12.341,-14.741 c 9.827,-8.8 23.31,-13.256 37.481,-13.256 19.426,0 32.339,9.713 32.339,26.053 v 0.229 C 29.825,-9.942 18.398,-4 0,0"
             style="fill:#ffffff;fill-opacity:1;fill-rule:nonzero;stroke:none"
             id="path44"
             inkscape:connector-curvature="0" /></g><g
           id="g46"
           transform="translate(179.3422,82.3263)"
           style="fill:#ffffff"><path
             d="M 0,0 C 0,-5.829 -4.343,-9.485 -11.885,-9.485 H -26.512 V 9.713 H -12 c 7.428,0 12,-3.2 12,-9.485 z m 22.283,1.371 v 0.228 c 0,7.885 -2.4,14.056 -7.085,18.627 -5.371,5.485 -13.827,8.685 -26.055,8.685 H -48.68 V -51.08 h 22.168 v 24.226 h 0.01 v 14.589 L -0.687,-51.08 H 24.911 L 5.827,-23.197 c 9.943,4.228 16.456,12.341 16.456,24.568"
             style="fill:#ffffff;fill-opacity:1;fill-rule:nonzero;stroke:none"
             id="path48"
             inkscape:connector-curvature="0" /></g><path
           d="m 223.399,92.382 h 74.584 v 18.855 h -74.584 z"
           style="fill:#ffffff;fill-opacity:1;fill-rule:nonzero;stroke:none"
           id="path50"
           inkscape:connector-curvature="0" /><path
           d="m 223.399,62.786 h 74.584 v 17.483 h -74.584 z"
           style="fill:#ffffff;fill-opacity:1;fill-rule:nonzero;stroke:none"
           id="path52"
           inkscape:connector-curvature="0" /><path
           d="m 223.399,31.246 h 74.584 v 18.855 h -74.584 z"
           style="fill:#ffffff;fill-opacity:1;fill-rule:nonzero;stroke:none"
           id="path54"
           inkscape:connector-curvature="0" /></g></g></g></svg>
